{"title":"Act of Valor [2012] HDRip H264 elite-pirates","uid":7175447,"size":473418141,"categoryP":"video","categoryS":"movies","magnet":"?xt=urn:btih:7f4d0f26e976b1b75530dd07de7092f8b5ca59d1&amp;dn=Act+of+Valor+%5B2012%5D+HDRip+H264+elite-pirates&amp;tr=udp%3A%2F%2Ftracker.openbittorrent.com%3A80&amp;tr=udp%3A%2F%2Fopen.demonii.com%3A1337&amp;tr=udp%3A%2F%2Ftracker.coppersurfer.tk%3A6969&amp;tr=udp%3A%2F%2Fexodus.desync.com%3A6969","seeders":0,"leechers":0,"uploader":"BLOVES","files":4,"time":1334095028,"description":"IMDb : http://www.imdb.com/title/tt1591479/\nSource : HDRip AC3 H264-CRYS.. Thanks!!!\nEncoder : dcloser\nAudio Language : English\n\n\nGeneral\nComplete name : Act of Valor [2012] HDRip H264 elite-pirates.com.avi\nFormat : AVI\nFormat/Info : Audio Video Interleave\nFile size : 451 MiB\nDuration : 1h 49mn\nOverall bit rate : 576 Kbps\nWriting library : VirtualDub build 32842/release\n\nVideo\nID : 0\nFormat : AVC\nFormat/Info : Advanced Video Codec\nFormat profile : &lt;a class=&quot;__cf_email__&quot; href=&quot;/cdn-cgi/l/email-protection&quot; data-cfemail=&quot;460e2f212e060a756876&quot;&gt;[email&amp;#160;protected]&lt;/a&gt;&lt;script cf-hash='f9e31' type=&quot;text/javascript&quot;&gt;\n/* &lt;![CDATA[ */!function(){try{var t=&quot;currentScript&quot;in document?document.currentScript:function(){for(var t=document.getElementsByTagName(&quot;script&quot;),e=t.length;e--;)if(t[e].getAttribute(&quot;cf-hash&quot;))return t[e]}();if(t&amp;&amp;t.previousSibling){var e,r,n,i,c=t.previousSibling,a=c.getAttribute(&quot;data-cfemail&quot;);if(a){for(e=&quot;&quot;,r=parseInt(a.substr(0,2),16),n=2;a.length-n;n+=2)i=parseInt(a.substr(n,2),16)^r,e+=String.fromCharCode(i);e=document.createTextNode(e),c.parentNode.replaceChild(e,c)}}}catch(u){}}();/* ]]&gt; */&lt;/script&gt;\nFormat settings, CABAC : Yes\nFormat settings, ReFrames : 4 frames\nFormat settings, GOP : M=1, N=32\nCodec ID : H264\nDuration : 1h 49mn\nBit rate : 368 Kbps\nWidth : 720 pixels\nHeight : 480 pixels\nDisplay aspect ratio : 3:2\nFrame rate : 29.970 fps\nStandard : NTSC\nColor space : YUV\nChroma subsampling : 4:2:0\nBit depth : 8 bits\nScan type : Progressive\nBits/(Pixel*Frame) : 0.036\nStream size : 289 MiB (64%)\nWriting library : x264 core 120 r2120bm 0c7dab9\nEncoding settings : cabac=1 / ref=3 / deblock=1:0:0 / analyse=0x3:0x113\n\nAudio\nID : 1\nFormat : MPEG Audio\nFormat version : Version 1\nFormat profile : Layer 3\nMode : Joint stereo\nMode extension : MS Stereo\nCodec ID : 55\nCodec ID/Hint : MP3\nDuration : 1h 49mn\nBit rate mode : Variable\nBit rate : 128 Kbps\nChannel(s) : 2 channels\nSampling rate : 44.1 KHz\nCompression mode : Lossy\nStream size : 152 MiB (34%)\nAlignment : Aligned on interleaves\nInterleave, duration : 26 ms (0.78 video frame)\nInterleave, preload duration : 906 ms\nWriting library : LAME3.97\n\n","torrent":{"xt":"urn:btih:7f4d0f26e976b1b75530dd07de7092f8b5ca59d1","amp;dn":"Act+of+Valor+%5B2012%5D+HDRip+H264+elite-pirates","amp;tr":["udp%3A%2F%2Ftracker.openbittorrent.com%3A80","udp%3A%2F%2Fopen.demonii.com%3A1337","udp%3A%2F%2Ftracker.coppersurfer.tk%3A6969","udp%3A%2F%2Fexodus.desync.com%3A6969"],"infoHash":"7f4d0f26e976b1b75530dd07de7092f8b5ca59d1","infoHashBuffer":{"type":"Buffer","data":[127,77,15,38,233,118,177,183,85,48,221,7,222,112,146,248,181,202,89,209]},"announce":[],"urlList":[]}}